<?xml version="1.0" encoding="UTF-8" standalone="no"?>
<!DOCTYPE svg PUBLIC "-//W3C//DTD SVG 1.1//EN"
 "http://www.w3.org/Graphics/SVG/1.1/DTD/svg11.dtd">
<!-- Generated by graphviz version 2.43.0 (0)
 -->
<!-- Title: tmdb_pipeline Pages: 1 -->
<svg width="2342pt" height="505pt"
 viewBox="0.00 0.00 2342.00 505.00" xmlns="http://www.w3.org/2000/svg" xmlns:xlink="http://www.w3.org/1999/xlink">
<g id="graph0" class="graph" transform="scale(1 1) rotate(0) translate(4 501)">
<title>tmdb_pipeline</title>
<polygon fill="white" stroke="transparent" points="-4,4 -4,-501 2338,-501 2338,4 -4,4"/>
<text text-anchor="middle" x="1167" y="-481.8" font-family="Times,serif" font-size="14.00">tmdb_pipeline</text>
<g id="clust1" class="cluster">
<title>cluster_credits</title>
<polygon fill="#6495ed" fill-opacity="0.498039" stroke="#000000" points="794,-8 794,-230 2326,-230 2326,-8 794,-8"/>
<text text-anchor="middle" x="1560" y="-214.8" font-family="Times,serif" font-size="14.00">credits</text>
</g>
<g id="clust2" class="cluster">
<title>cluster_credits.api_ingestion_iterate</title>
<polygon fill="#6495ed" fill-opacity="0.498039" stroke="#000000" points="881,-60 881,-155 1568.5,-155 1568.5,-60 881,-60"/>
<text text-anchor="middle" x="1224.75" y="-139.8" font-family="Times,serif" font-size="14.00">api_ingestion_iterate</text>
</g>
<g id="clust3" class="cluster">
<title>cluster_discover_movies</title>
<polygon fill="#6495ed" fill-opacity="0.498039" stroke="#000000" points="8,-238 8,-466 1573,-466 1573,-238 8,-238"/>
<text text-anchor="middle" x="790.5" y="-450.8" font-family="Times,serif" font-size="14.00">discover_movies</text>
</g>
<g id="clust4" class="cluster">
<title>cluster_discover_movies.api_ingestion_iterate</title>
<polygon fill="#6495ed" fill-opacity="0.498039" stroke="#000000" points="232,-290 232,-385 764,-385 764,-290 232,-290"/>
<text text-anchor="middle" x="498" y="-369.8" font-family="Times,serif" font-size="14.00">api_ingestion_iterate</text>
</g>
<!-- credits.api_ingestion_iterate.upstream_join_id -->
<g id="node1" class="node">
<title>credits.api_ingestion_iterate.upstream_join_id</title>
<ellipse fill="CornflowerBlue" stroke="#000000" cx="896" cy="-111" rx="7" ry="7"/>
</g>
<!-- credits.api_ingestion_iterate.setup_api_call -->
<g id="node4" class="node">
<title>credits.api_ingestion_iterate.setup_api_call</title>
<path fill="#ffefeb" stroke="#000000" d="M1130,-124C1130,-124 1038,-124 1038,-124 1032,-124 1026,-118 1026,-112 1026,-112 1026,-100 1026,-100 1026,-94 1032,-88 1038,-88 1038,-88 1130,-88 1130,-88 1136,-88 1142,-94 1142,-100 1142,-100 1142,-112 1142,-112 1142,-118 1136,-124 1130,-124"/>
<text text-anchor="middle" x="1084" y="-102.3" font-family="Times,serif" font-size="14.00">setup_api_call</text>
</g>
<!-- credits.api_ingestion_iterate.upstream_join_id&#45;&gt;credits.api_ingestion_iterate.setup_api_call -->
<g id="edge5" class="edge">
<title>credits.api_ingestion_iterate.upstream_join_id&#45;&gt;credits.api_ingestion_iterate.setup_api_call</title>
<path fill="none" stroke="black" d="M903.19,-110.83C920.7,-110.36 972.12,-108.98 1015.51,-107.81"/>
<polygon fill="black" stroke="black" points="1015.87,-111.31 1025.77,-107.54 1015.68,-104.31 1015.87,-111.31"/>
</g>
<!-- credits.api_ingestion_iterate.api_fetch_and_load -->
<g id="node2" class="node">
<title>credits.api_ingestion_iterate.api_fetch_and_load</title>
<path fill="#ffefeb" stroke="#000000" d="M1329,-124C1329,-124 1202,-124 1202,-124 1196,-124 1190,-118 1190,-112 1190,-112 1190,-100 1190,-100 1190,-94 1196,-88 1202,-88 1202,-88 1329,-88 1329,-88 1335,-88 1341,-94 1341,-100 1341,-100 1341,-112 1341,-112 1341,-118 1335,-124 1329,-124"/>
<text text-anchor="middle" x="1265.5" y="-102.3" font-family="Times,serif" font-size="14.00">api_fetch_and_load</text>
</g>
<!-- credits.api_ingestion_iterate.gcs_initial_transform -->
<g id="node3" class="node">
<title>credits.api_ingestion_iterate.gcs_initial_transform</title>
<path fill="#ffefeb" stroke="#000000" d="M1548.5,-104C1548.5,-104 1405.5,-104 1405.5,-104 1399.5,-104 1393.5,-98 1393.5,-92 1393.5,-92 1393.5,-80 1393.5,-80 1393.5,-74 1399.5,-68 1405.5,-68 1405.5,-68 1548.5,-68 1548.5,-68 1554.5,-68 1560.5,-74 1560.5,-80 1560.5,-80 1560.5,-92 1560.5,-92 1560.5,-98 1554.5,-104 1548.5,-104"/>
<text text-anchor="middle" x="1477" y="-82.3" font-family="Times,serif" font-size="14.00">gcs_initial_transform</text>
</g>
<!-- credits.api_ingestion_iterate.api_fetch_and_load&#45;&gt;credits.api_ingestion_iterate.gcs_initial_transform -->
<g id="edge1" class="edge">
<title>credits.api_ingestion_iterate.api_fetch_and_load&#45;&gt;credits.api_ingestion_iterate.gcs_initial_transform</title>
<path fill="none" stroke="black" d="M1341.25,-98.86C1354.86,-97.56 1369.22,-96.19 1383.28,-94.85"/>
<polygon fill="black" stroke="black" points="1383.83,-98.31 1393.45,-93.88 1383.17,-91.35 1383.83,-98.31"/>
</g>
<!-- credits.reduce_xcom_gcs_uri -->
<g id="node10" class="node">
<title>credits.reduce_xcom_gcs_uri</title>
<path fill="#ffefeb" stroke="#000000" d="M1756,-104C1756,-104 1613,-104 1613,-104 1607,-104 1601,-98 1601,-92 1601,-92 1601,-80 1601,-80 1601,-74 1607,-68 1613,-68 1613,-68 1756,-68 1756,-68 1762,-68 1768,-74 1768,-80 1768,-80 1768,-92 1768,-92 1768,-98 1762,-104 1756,-104"/>
<text text-anchor="middle" x="1684.5" y="-82.3" font-family="Times,serif" font-size="14.00">reduce_xcom_gcs_uri</text>
</g>
<!-- credits.api_ingestion_iterate.gcs_initial_transform&#45;&gt;credits.reduce_xcom_gcs_uri -->
<g id="edge2" class="edge">
<title>credits.api_ingestion_iterate.gcs_initial_transform&#45;&gt;credits.reduce_xcom_gcs_uri</title>
<path fill="none" stroke="black" d="M1560.7,-86C1570.65,-86 1580.87,-86 1590.95,-86"/>
<polygon fill="black" stroke="black" points="1590.97,-89.5 1600.97,-86 1590.97,-82.5 1590.97,-89.5"/>
</g>
<!-- credits.api_ingestion_iterate.setup_api_call&#45;&gt;credits.api_ingestion_iterate.api_fetch_and_load -->
<g id="edge3" class="edge">
<title>credits.api_ingestion_iterate.setup_api_call&#45;&gt;credits.api_ingestion_iterate.api_fetch_and_load</title>
<path fill="none" stroke="black" d="M1142.29,-106C1154.19,-106 1166.97,-106 1179.62,-106"/>
<polygon fill="black" stroke="black" points="1179.72,-109.5 1189.72,-106 1179.72,-102.5 1179.72,-109.5"/>
</g>
<!-- credits.api_ingestion_iterate.setup_api_call&#45;&gt;credits.api_ingestion_iterate.gcs_initial_transform -->
<g id="edge4" class="edge">
<title>credits.api_ingestion_iterate.setup_api_call&#45;&gt;credits.api_ingestion_iterate.gcs_initial_transform</title>
<path fill="none" stroke="black" d="M1137.55,-87.95C1150.61,-84.24 1164.68,-80.89 1178,-79 1246.29,-69.29 1324.25,-71.59 1383.3,-76.02"/>
<polygon fill="black" stroke="black" points="1383.11,-79.52 1393.36,-76.81 1383.66,-72.54 1383.11,-79.52"/>
</g>
<!-- credits.bq_stg_to_final_merge -->
<g id="node5" class="node">
<title>credits.bq_stg_to_final_merge</title>
<path fill="#ffefeb" stroke="#000000" d="M2094,-94C2094,-94 1943,-94 1943,-94 1937,-94 1931,-88 1931,-82 1931,-82 1931,-70 1931,-70 1931,-64 1937,-58 1943,-58 1943,-58 2094,-58 2094,-58 2100,-58 2106,-64 2106,-70 2106,-70 2106,-82 2106,-82 2106,-88 2100,-94 2094,-94"/>
<text text-anchor="middle" x="2018.5" y="-72.3" font-family="Times,serif" font-size="14.00">bq_stg_to_final_merge</text>
</g>
<!-- credits.delete_gcs_tmp_folder -->
<g id="node8" class="node">
<title>credits.delete_gcs_tmp_folder</title>
<path fill="#ffefeb" stroke="#000000" d="M2306,-138C2306,-138 2154,-138 2154,-138 2148,-138 2142,-132 2142,-126 2142,-126 2142,-114 2142,-114 2142,-108 2148,-102 2154,-102 2154,-102 2306,-102 2306,-102 2312,-102 2318,-108 2318,-114 2318,-114 2318,-126 2318,-126 2318,-132 2312,-138 2306,-138"/>
<text text-anchor="middle" x="2230" y="-116.3" font-family="Times,serif" font-size="14.00">delete_gcs_tmp_folder</text>
</g>
<!-- credits.bq_stg_to_final_merge&#45;&gt;credits.delete_gcs_tmp_folder -->
<g id="edge6" class="edge">
<title>credits.bq_stg_to_final_merge&#45;&gt;credits.delete_gcs_tmp_folder</title>
<path fill="none" stroke="black" d="M2105.32,-94.02C2114.44,-95.94 2123.77,-97.9 2133.01,-99.84"/>
<polygon fill="black" stroke="black" points="2132.47,-103.3 2142.98,-101.93 2133.91,-96.45 2132.47,-103.3"/>
</g>
<!-- credits.create_gcs_folder_paths -->
<g id="node6" class="node">
<title>credits.create_gcs_folder_paths</title>
<path fill="#ffefeb" stroke="#000000" d="M978,-199C978,-199 814,-199 814,-199 808,-199 802,-193 802,-187 802,-187 802,-175 802,-175 802,-169 808,-163 814,-163 814,-163 978,-163 978,-163 984,-163 990,-169 990,-175 990,-175 990,-187 990,-187 990,-193 984,-199 978,-199"/>
<text text-anchor="middle" x="896" y="-177.3" font-family="Times,serif" font-size="14.00">create_gcs_folder_paths</text>
</g>
<!-- credits.create_gcs_folder_paths&#45;&gt;credits.api_ingestion_iterate.setup_api_call -->
<g id="edge7" class="edge">
<title>credits.create_gcs_folder_paths&#45;&gt;credits.api_ingestion_iterate.setup_api_call</title>
<path fill="none" stroke="black" d="M981.79,-162.83C984.59,-161.63 987.34,-160.36 990,-159 1006.31,-150.68 1007.78,-141.64 1024.32,-129.75"/>
<polygon fill="black" stroke="black" points="1026.59,-132.45 1033.08,-124.08 1022.78,-126.58 1026.59,-132.45"/>
</g>
<!-- credits.create_gcs_folder_paths&#45;&gt;credits.delete_gcs_tmp_folder -->
<g id="edge8" class="edge">
<title>credits.create_gcs_folder_paths&#45;&gt;credits.delete_gcs_tmp_folder</title>
<path fill="none" stroke="black" d="M990.25,-177.46C1064.53,-174.94 1171.16,-172 1264.5,-172 1264.5,-172 1264.5,-172 1850.5,-172 1948.58,-172 2059.63,-154.65 2135.94,-140"/>
<polygon fill="black" stroke="black" points="2136.86,-143.38 2146.01,-138.04 2135.53,-136.51 2136.86,-143.38"/>
</g>
<!-- credits.create_staging_table -->
<g id="node7" class="node">
<title>credits.create_staging_table</title>
<path fill="#ffefeb" stroke="#000000" d="M966,-52C966,-52 826,-52 826,-52 820,-52 814,-46 814,-40 814,-40 814,-28 814,-28 814,-22 820,-16 826,-16 826,-16 966,-16 966,-16 972,-16 978,-22 978,-28 978,-28 978,-40 978,-40 978,-46 972,-52 966,-52"/>
<text text-anchor="middle" x="896" y="-30.3" font-family="Times,serif" font-size="14.00">create_staging_table</text>
</g>
<!-- credits.create_staging_table&#45;&gt;credits.api_ingestion_iterate.setup_api_call -->
<g id="edge9" class="edge">
<title>credits.create_staging_table&#45;&gt;credits.api_ingestion_iterate.setup_api_call</title>
<path fill="none" stroke="black" d="M978.37,-51.03C982.36,-52.56 986.26,-54.21 990,-56 1005.85,-63.59 1008.02,-71.57 1024.68,-82.62"/>
<polygon fill="black" stroke="black" points="1023.09,-85.75 1033.46,-87.92 1026.71,-79.76 1023.09,-85.75"/>
</g>
<!-- credits.create_staging_table&#45;&gt;credits.bq_stg_to_final_merge -->
<g id="edge10" class="edge">
<title>credits.create_staging_table&#45;&gt;credits.bq_stg_to_final_merge</title>
<path fill="none" stroke="black" d="M978.01,-32.27C1052.47,-30.82 1165.92,-29 1264.5,-29 1264.5,-29 1264.5,-29 1685.5,-29 1779.03,-29 1802.6,-34.46 1895,-49 1907.22,-50.92 1920.05,-53.32 1932.62,-55.89"/>
<polygon fill="black" stroke="black" points="1932.12,-59.36 1942.62,-57.98 1933.55,-52.51 1932.12,-59.36"/>
</g>
<!-- credits.gcs_to_stg -->
<g id="node9" class="node">
<title>credits.gcs_to_stg</title>
<path fill="#ffefeb" stroke="#000000" d="M1883,-94C1883,-94 1816,-94 1816,-94 1810,-94 1804,-88 1804,-82 1804,-82 1804,-70 1804,-70 1804,-64 1810,-58 1816,-58 1816,-58 1883,-58 1883,-58 1889,-58 1895,-64 1895,-70 1895,-70 1895,-82 1895,-82 1895,-88 1889,-94 1883,-94"/>
<text text-anchor="middle" x="1849.5" y="-72.3" font-family="Times,serif" font-size="14.00">gcs_to_stg</text>
</g>
<!-- credits.create_staging_table&#45;&gt;credits.gcs_to_stg -->
<g id="edge11" class="edge">
<title>credits.create_staging_table&#45;&gt;credits.gcs_to_stg</title>
<path fill="none" stroke="black" d="M978.34,-39.23C1052.78,-43.55 1166,-49 1264.5,-49 1264.5,-49 1264.5,-49 1478,-49 1606.97,-49 1639.98,-43.4 1768,-59 1776.36,-60.02 1785.13,-61.47 1793.69,-63.1"/>
<polygon fill="black" stroke="black" points="1793.11,-66.55 1803.6,-65.08 1794.48,-59.69 1793.11,-66.55"/>
</g>
<!-- credits.gcs_to_stg&#45;&gt;credits.bq_stg_to_final_merge -->
<g id="edge12" class="edge">
<title>credits.gcs_to_stg&#45;&gt;credits.bq_stg_to_final_merge</title>
<path fill="none" stroke="black" d="M1895.25,-76C1903.26,-76 1911.87,-76 1920.68,-76"/>
<polygon fill="black" stroke="black" points="1920.7,-79.5 1930.7,-76 1920.7,-72.5 1920.7,-79.5"/>
</g>
<!-- credits.reduce_xcom_gcs_uri&#45;&gt;credits.gcs_to_stg -->
<g id="edge13" class="edge">
<title>credits.reduce_xcom_gcs_uri&#45;&gt;credits.gcs_to_stg</title>
<path fill="none" stroke="black" d="M1768.43,-80.91C1777.06,-80.38 1785.66,-79.85 1793.86,-79.35"/>
<polygon fill="black" stroke="black" points="1794.23,-82.84 1804,-78.73 1793.8,-75.85 1794.23,-82.84"/>
</g>
<!-- discover_movies.api_ingestion_iterate.api_fetch_and_load -->
<g id="node11" class="node">
<title>discover_movies.api_ingestion_iterate.api_fetch_and_load</title>
<path fill="#ffefeb" stroke="#000000" d="M531,-334C531,-334 404,-334 404,-334 398,-334 392,-328 392,-322 392,-322 392,-310 392,-310 392,-304 398,-298 404,-298 404,-298 531,-298 531,-298 537,-298 543,-304 543,-310 543,-310 543,-322 543,-322 543,-328 537,-334 531,-334"/>
<text text-anchor="middle" x="467.5" y="-312.3" font-family="Times,serif" font-size="14.00">api_fetch_and_load</text>
</g>
<!-- discover_movies.api_ingestion_iterate.gcs_initial_transform -->
<g id="node12" class="node">
<title>discover_movies.api_ingestion_iterate.gcs_initial_transform</title>
<path fill="#ffefeb" stroke="#000000" d="M744,-354C744,-354 601,-354 601,-354 595,-354 589,-348 589,-342 589,-342 589,-330 589,-330 589,-324 595,-318 601,-318 601,-318 744,-318 744,-318 750,-318 756,-324 756,-330 756,-330 756,-342 756,-342 756,-348 750,-354 744,-354"/>
<text text-anchor="middle" x="672.5" y="-332.3" font-family="Times,serif" font-size="14.00">gcs_initial_transform</text>
</g>
<!-- discover_movies.api_ingestion_iterate.api_fetch_and_load&#45;&gt;discover_movies.api_ingestion_iterate.gcs_initial_transform -->
<g id="edge14" class="edge">
<title>discover_movies.api_ingestion_iterate.api_fetch_and_load&#45;&gt;discover_movies.api_ingestion_iterate.gcs_initial_transform</title>
<path fill="none" stroke="black" d="M543.22,-323.36C554.68,-324.49 566.62,-325.67 578.42,-326.83"/>
<polygon fill="black" stroke="black" points="578.43,-330.35 588.72,-327.84 579.11,-323.38 578.43,-330.35"/>
</g>
<!-- discover_movies.reduce_xcom_movie_ids -->
<g id="node20" class="node">
<title>discover_movies.reduce_xcom_movie_ids</title>
<path fill="#ffefeb" stroke="#000000" d="M754,-282C754,-282 591,-282 591,-282 585,-282 579,-276 579,-270 579,-270 579,-258 579,-258 579,-252 585,-246 591,-246 591,-246 754,-246 754,-246 760,-246 766,-252 766,-258 766,-258 766,-270 766,-270 766,-276 760,-282 754,-282"/>
<text text-anchor="middle" x="672.5" y="-260.3" font-family="Times,serif" font-size="14.00">reduce_xcom_movie_ids</text>
</g>
<!-- discover_movies.api_ingestion_iterate.api_fetch_and_load&#45;&gt;discover_movies.reduce_xcom_movie_ids -->
<g id="edge15" class="edge">
<title>discover_movies.api_ingestion_iterate.api_fetch_and_load&#45;&gt;discover_movies.reduce_xcom_movie_ids</title>
<path fill="none" stroke="black" d="M533.56,-297.97C548.47,-293.94 564.26,-289.75 579,-286 580.92,-285.51 582.86,-285.02 584.82,-284.53"/>
<polygon fill="black" stroke="black" points="585.87,-287.87 594.73,-282.06 584.18,-281.08 585.87,-287.87"/>
</g>
<!-- discover_movies.reduce_xcom_gcs_uri -->
<g id="node19" class="node">
<title>discover_movies.reduce_xcom_gcs_uri</title>
<path fill="#ffefeb" stroke="#000000" d="M967.5,-365C967.5,-365 824.5,-365 824.5,-365 818.5,-365 812.5,-359 812.5,-353 812.5,-353 812.5,-341 812.5,-341 812.5,-335 818.5,-329 824.5,-329 824.5,-329 967.5,-329 967.5,-329 973.5,-329 979.5,-335 979.5,-341 979.5,-341 979.5,-353 979.5,-353 979.5,-359 973.5,-365 967.5,-365"/>
<text text-anchor="middle" x="896" y="-343.3" font-family="Times,serif" font-size="14.00">reduce_xcom_gcs_uri</text>
</g>
<!-- discover_movies.api_ingestion_iterate.gcs_initial_transform&#45;&gt;discover_movies.reduce_xcom_gcs_uri -->
<g id="edge16" class="edge">
<title>discover_movies.api_ingestion_iterate.gcs_initial_transform&#45;&gt;discover_movies.reduce_xcom_gcs_uri</title>
<path fill="none" stroke="black" d="M756.29,-340.11C771.17,-340.85 786.77,-341.62 801.91,-342.38"/>
<polygon fill="black" stroke="black" points="802.15,-345.89 812.31,-342.89 802.49,-338.9 802.15,-345.89"/>
</g>
<!-- discover_movies.api_ingestion_iterate.setup_api_call -->
<g id="node13" class="node">
<title>discover_movies.api_ingestion_iterate.setup_api_call</title>
<path fill="#ffefeb" stroke="#000000" d="M344,-354C344,-354 252,-354 252,-354 246,-354 240,-348 240,-342 240,-342 240,-330 240,-330 240,-324 246,-318 252,-318 252,-318 344,-318 344,-318 350,-318 356,-324 356,-330 356,-330 356,-342 356,-342 356,-348 350,-354 344,-354"/>
<text text-anchor="middle" x="298" y="-332.3" font-family="Times,serif" font-size="14.00">setup_api_call</text>
</g>
<!-- discover_movies.api_ingestion_iterate.setup_api_call&#45;&gt;discover_movies.api_ingestion_iterate.api_fetch_and_load -->
<g id="edge17" class="edge">
<title>discover_movies.api_ingestion_iterate.setup_api_call&#45;&gt;discover_movies.api_ingestion_iterate.api_fetch_and_load</title>
<path fill="none" stroke="black" d="M356.18,-329.17C364.42,-328.19 373.04,-327.16 381.68,-326.13"/>
<polygon fill="black" stroke="black" points="382.3,-329.58 391.81,-324.92 381.47,-322.63 382.3,-329.58"/>
</g>
<!-- discover_movies.api_ingestion_iterate.setup_api_call&#45;&gt;discover_movies.api_ingestion_iterate.gcs_initial_transform -->
<g id="edge18" class="edge">
<title>discover_movies.api_ingestion_iterate.setup_api_call&#45;&gt;discover_movies.api_ingestion_iterate.gcs_initial_transform</title>
<path fill="none" stroke="black" d="M356.01,-340.97C367.9,-341.82 380.35,-342.56 392,-343 459.06,-345.52 475.91,-344.83 543,-343 554.6,-342.68 566.79,-342.21 578.84,-341.65"/>
<polygon fill="black" stroke="black" points="579.1,-345.14 588.92,-341.16 578.77,-338.15 579.1,-345.14"/>
</g>
<!-- discover_movies.bq_stg_to_final_merge -->
<g id="node14" class="node">
<title>discover_movies.bq_stg_to_final_merge</title>
<path fill="#ffefeb" stroke="#000000" d="M1341,-415C1341,-415 1190,-415 1190,-415 1184,-415 1178,-409 1178,-403 1178,-403 1178,-391 1178,-391 1178,-385 1184,-379 1190,-379 1190,-379 1341,-379 1341,-379 1347,-379 1353,-385 1353,-391 1353,-391 1353,-403 1353,-403 1353,-409 1347,-415 1341,-415"/>
<text text-anchor="middle" x="1265.5" y="-393.3" font-family="Times,serif" font-size="14.00">bq_stg_to_final_merge</text>
</g>
<!-- discover_movies.delete_gcs_tmp_folder -->
<g id="node17" class="node">
<title>discover_movies.delete_gcs_tmp_folder</title>
<path fill="#ffefeb" stroke="#000000" d="M1553,-425C1553,-425 1401,-425 1401,-425 1395,-425 1389,-419 1389,-413 1389,-413 1389,-401 1389,-401 1389,-395 1395,-389 1401,-389 1401,-389 1553,-389 1553,-389 1559,-389 1565,-395 1565,-401 1565,-401 1565,-413 1565,-413 1565,-419 1559,-425 1553,-425"/>
<text text-anchor="middle" x="1477" y="-403.3" font-family="Times,serif" font-size="14.00">delete_gcs_tmp_folder</text>
</g>
<!-- discover_movies.bq_stg_to_final_merge&#45;&gt;discover_movies.delete_gcs_tmp_folder -->
<g id="edge19" class="edge">
<title>discover_movies.bq_stg_to_final_merge&#45;&gt;discover_movies.delete_gcs_tmp_folder</title>
<path fill="none" stroke="black" d="M1353.22,-401.14C1361.55,-401.54 1370.03,-401.94 1378.44,-402.34"/>
<polygon fill="black" stroke="black" points="1378.51,-405.85 1388.67,-402.83 1378.84,-398.86 1378.51,-405.85"/>
</g>
<!-- discover_movies.create_gcs_folder_paths -->
<g id="node15" class="node">
<title>discover_movies.create_gcs_folder_paths</title>
<path fill="#ffefeb" stroke="#000000" d="M192,-435C192,-435 28,-435 28,-435 22,-435 16,-429 16,-423 16,-423 16,-411 16,-411 16,-405 22,-399 28,-399 28,-399 192,-399 192,-399 198,-399 204,-405 204,-411 204,-411 204,-423 204,-423 204,-429 198,-435 192,-435"/>
<text text-anchor="middle" x="110" y="-413.3" font-family="Times,serif" font-size="14.00">create_gcs_folder_paths</text>
</g>
<!-- discover_movies.create_gcs_folder_paths&#45;&gt;discover_movies.api_ingestion_iterate.setup_api_call -->
<g id="edge20" class="edge">
<title>discover_movies.create_gcs_folder_paths&#45;&gt;discover_movies.api_ingestion_iterate.setup_api_call</title>
<path fill="none" stroke="black" d="M187.22,-398.87C193.08,-396.28 198.75,-393.34 204,-390 217.7,-381.27 216.93,-371.67 231.35,-359.54"/>
<polygon fill="black" stroke="black" points="233.78,-362.1 239.79,-353.37 229.65,-356.45 233.78,-362.1"/>
</g>
<!-- discover_movies.create_gcs_folder_paths&#45;&gt;discover_movies.delete_gcs_tmp_folder -->
<g id="edge21" class="edge">
<title>discover_movies.create_gcs_folder_paths&#45;&gt;discover_movies.delete_gcs_tmp_folder</title>
<path fill="none" stroke="black" d="M204.13,-423.89C275.81,-428.6 377.37,-434 466.5,-434 466.5,-434 466.5,-434 1085,-434 1204.19,-434 1234.26,-434.39 1353,-424 1361.33,-423.27 1369.97,-422.37 1378.62,-421.37"/>
<polygon fill="black" stroke="black" points="1379.26,-424.82 1388.77,-420.15 1378.42,-417.87 1379.26,-424.82"/>
</g>
<!-- discover_movies.create_staging_table -->
<g id="node16" class="node">
<title>discover_movies.create_staging_table</title>
<path fill="#ffefeb" stroke="#000000" d="M180,-381C180,-381 40,-381 40,-381 34,-381 28,-375 28,-369 28,-369 28,-357 28,-357 28,-351 34,-345 40,-345 40,-345 180,-345 180,-345 186,-345 192,-351 192,-357 192,-357 192,-369 192,-369 192,-375 186,-381 180,-381"/>
<text text-anchor="middle" x="110" y="-359.3" font-family="Times,serif" font-size="14.00">create_staging_table</text>
</g>
<!-- discover_movies.create_staging_table&#45;&gt;discover_movies.api_ingestion_iterate.setup_api_call -->
<g id="edge22" class="edge">
<title>discover_movies.create_staging_table&#45;&gt;discover_movies.api_ingestion_iterate.setup_api_call</title>
<path fill="none" stroke="black" d="M192.04,-351.24C204.66,-349.4 217.58,-347.53 229.85,-345.75"/>
<polygon fill="black" stroke="black" points="230.58,-349.18 239.98,-344.28 229.58,-342.25 230.58,-349.18"/>
</g>
<!-- discover_movies.create_staging_table&#45;&gt;discover_movies.bq_stg_to_final_merge -->
<g id="edge23" class="edge">
<title>discover_movies.create_staging_table&#45;&gt;discover_movies.bq_stg_to_final_merge</title>
<path fill="none" stroke="black" d="M173.05,-381.02C199.46,-388.58 225.66,-395.89 232,-397 334.93,-415 362,-414 466.5,-414 466.5,-414 466.5,-414 897,-414 988.81,-414 1093.38,-408.64 1167.43,-403.94"/>
<polygon fill="black" stroke="black" points="1167.92,-407.42 1177.68,-403.28 1167.47,-400.43 1167.92,-407.42"/>
</g>
<!-- discover_movies.gcs_to_stg -->
<g id="node18" class="node">
<title>discover_movies.gcs_to_stg</title>
<path fill="#ffefeb" stroke="#000000" d="M1117.5,-395C1117.5,-395 1050.5,-395 1050.5,-395 1044.5,-395 1038.5,-389 1038.5,-383 1038.5,-383 1038.5,-371 1038.5,-371 1038.5,-365 1044.5,-359 1050.5,-359 1050.5,-359 1117.5,-359 1117.5,-359 1123.5,-359 1129.5,-365 1129.5,-371 1129.5,-371 1129.5,-383 1129.5,-383 1129.5,-389 1123.5,-395 1117.5,-395"/>
<text text-anchor="middle" x="1084" y="-373.3" font-family="Times,serif" font-size="14.00">gcs_to_stg</text>
</g>
<!-- discover_movies.create_staging_table&#45;&gt;discover_movies.gcs_to_stg -->
<g id="edge24" class="edge">
<title>discover_movies.create_staging_table&#45;&gt;discover_movies.gcs_to_stg</title>
<path fill="none" stroke="black" d="M183.89,-381C199.66,-384.24 216.31,-387.16 232,-389 335.54,-401.12 362.25,-394 466.5,-394 466.5,-394 466.5,-394 673.5,-394 800.67,-394 949.87,-385.71 1028.35,-380.71"/>
<polygon fill="black" stroke="black" points="1028.73,-384.19 1038.49,-380.06 1028.28,-377.21 1028.73,-384.19"/>
</g>
<!-- discover_movies.gcs_to_stg&#45;&gt;discover_movies.bq_stg_to_final_merge -->
<g id="edge25" class="edge">
<title>discover_movies.gcs_to_stg&#45;&gt;discover_movies.bq_stg_to_final_merge</title>
<path fill="none" stroke="black" d="M1129.83,-382C1141.5,-383.3 1154.53,-384.75 1167.77,-386.22"/>
<polygon fill="black" stroke="black" points="1167.58,-389.72 1177.91,-387.35 1168.36,-382.77 1167.58,-389.72"/>
</g>
<!-- discover_movies.reduce_xcom_gcs_uri&#45;&gt;discover_movies.gcs_to_stg -->
<g id="edge26" class="edge">
<title>discover_movies.reduce_xcom_gcs_uri&#45;&gt;discover_movies.gcs_to_stg</title>
<path fill="none" stroke="black" d="M979.67,-360.33C996.06,-362.98 1012.89,-365.69 1028.09,-368.14"/>
<polygon fill="black" stroke="black" points="1027.89,-371.66 1038.32,-369.79 1029,-364.75 1027.89,-371.66"/>
</g>
<!-- discover_movies.reduce_xcom_movie_ids&#45;&gt;credits.api_ingestion_iterate.upstream_join_id -->
<g id="edge27" class="edge">
<title>discover_movies.reduce_xcom_movie_ids&#45;&gt;credits.api_ingestion_iterate.upstream_join_id</title>
<path fill="none" stroke="black" d="M682.85,-245.8C700.06,-214.39 740.02,-150.64 794,-122 820.96,-107.7 857.61,-107.7 878.54,-109.21"/>
<polygon fill="black" stroke="black" points="878.34,-112.71 888.62,-110.15 878.99,-105.74 878.34,-112.71"/>
</g>
</g>
</svg>
